<?xml version="1.0" standalone="no"?>
<!DOCTYPE svg PUBLIC "-//W3C//DTD SVG 20010904//EN"
 "http://www.w3.org/TR/2001/REC-SVG-20010904/DTD/svg10.dtd">
<svg version="1.0" xmlns="http://www.w3.org/2000/svg"
 width="512.000000pt" height="512.000000pt" viewBox="0 0 512.000000 512.000000"
 preserveAspectRatio="xMidYMid meet">
<metadata>
Created by potrace 1.16, written by Peter Selinger 2001-2019
</metadata>
<g transform="translate(0.000000,512.000000) scale(0.100000,-0.100000)"
fill="#000000" stroke="none">
<path d="M1190 4825 c-201 -35 -444 -140 -601 -259 -266 -201 -464 -513 -546
-856 -44 -188 -57 -473 -29 -655 73 -476 357 -928 910 -1448 205 -193 348
-319 930 -820 358 -309 538 -457 576 -475 78 -38 182 -38 260 -1 75 37 1141
953 1502 1292 553 519 841 976 914 1452 28 182 15 467 -29 655 -82 343 -280
655 -546 856 -161 122 -402 225 -611 259 -113 19 -344 19 -456 0 -310 -54
-601 -226 -820 -487 -43 -51 -80 -93 -84 -93 -4 0 -41 42 -84 93 -219 261
-510 433 -820 487 -108 18 -358 18 -466 0z m500 -324 c97 -28 259 -108 335
-165 94 -71 220 -202 288 -299 34 -49 74 -107 89 -128 75 -106 241 -106 316 0
15 21 55 79 89 128 68 97 194 228 288 299 78 58 239 137 340 166 70 20 102 23
260 23 197 -1 263 -13 415 -74 337 -137 589 -458 676 -861 26 -121 27 -439 1
-560 -95 -442 -394 -839 -1104 -1468 -369 -327 -1118 -962 -1129 -958 -15 6
-882 749 -1119 960 -712 632 -1006 1024 -1102 1466 -26 121 -25 439 1 560 101
465 409 805 825 909 111 29 121 29 296 26 128 -2 175 -7 235 -24z"/>
</g>
</svg>
